<svg xmlns="http://www.w3.org/2000/svg" xmlns:xlink="http://www.w3.org/1999/xlink" width="10634.368" height="11115.758" viewBox="0 0 10634.368 11115.758"><defs><style>.a{fill:#ecd4d4;}.b{fill:#f5f5f5;}.c,.i{fill:none;}.c,.g{stroke:#707070;}.d{fill:#fad4d4;stroke:#7ca0ab;stroke-width:21px;}.e{fill:#3b8394;opacity:0.63;}.f{fill:#d5e0b8;}.g{fill:#fff;}.h{stroke:none;}.j{filter:url(#a);}</style><filter id="a" x="6122.335" y="5716.703" width="2395" height="2980" filterUnits="userSpaceOnUse"><feOffset dx="17" dy="36" input="SourceAlpha"/><feGaussianBlur stdDeviation="49.5" result="b"/><feFlood flood-opacity="0.659"/><feComposite operator="in" in2="b"/><feComposite in="SourceGraphic"/></filter></defs><g transform="translate(9481.835 3547.203)"><path class="a" d="M-9594.717,4943.4c-139.6-1896.237,283.874-3796.643,1745.35-4669.071S-5319.052-88.187-3120.3,1692.523c1486.768,544.964,2006.8,1239.715,2076.6,2183.063,174.5,2358.346-986.254,4696.958-3054.133,4812.485S-9455.113,6839.64-9594.717,4943.4Z" transform="translate(2179 -3405)"/><path class="b" d="M-9603.33,3517.4C-9695.063,2152.866-9416.8,785.333-8456.464,157.533S-6793.8-103.333-5349,1178.066c976.953,392.157,1318.666,892.1,1364.533,1570.933,114.667,1697.066-648.066,3379.932-2006.866,3463.065S-9511.6,4881.933-9603.33,3517.4Z" transform="translate(138 322)"/><path class="c" d="M-5326.265,1189.666l68.8-103.2"/><g class="d" transform="translate(-5976.443 2789.445) rotate(22)"><rect class="h" width="3486" height="3746" rx="345"/><rect class="i" x="10.5" y="10.5" width="3465" height="3725" rx="334.5"/></g><path class="e" d="M116.637,3103.016c-120.2-1161.507,80.435-2314.4,894.7-2818.55S2445.7,113.1,3737.021,1244.822c859.05,362.483,1170.326,797.334,1230.324,1375.172,149.994,1444.581-461.458,2850.637-1637.554,2880.244S236.837,4264.524,116.637,3103.016Z" transform="matrix(0.53, 0.848, -0.848, 0.53, -2614.142, -236.194)"/><path class="c" d="M0,103.2,68.8,0" transform="matrix(0.53, 0.848, -0.848, 0.53, -2400.304, 3058.298)"/><ellipse class="f" cx="395.5" cy="401.5" rx="395.5" ry="401.5" transform="translate(-6335 1605)"/><g class="j" transform="matrix(1, 0, 0, 1, -9481.83, -3547.2)"><ellipse class="a" cx="1049" cy="1341.5" rx="1049" ry="1341.5" transform="translate(6253.83 5829.2)"/></g><g class="g" transform="translate(-6658 2500)"><rect class="h" width="719" height="23"/><rect class="i" x="0.5" y="0.5" width="718" height="22"/></g></g></svg>