<svg xmlns="http://www.w3.org/2000/svg" xmlns:xlink="http://www.w3.org/1999/xlink" width="16837.715" height="681.956" viewBox="0 0 16837.715 681.956"><defs><style>.a,.d{fill:none;}.b{clip-path:url(#a);}.c{clip-path:url(#b);}.d{stroke:#707070;stroke-width:31px;}.e{stroke:#086c97;stroke-width:23px;fill:url(#c);}.f{stroke:none;}</style><clipPath id="a"><rect class="a" width="16837.715" height="681.956"/></clipPath><clipPath id="b"><rect class="a" width="2133.715" height="681.956"/></clipPath><linearGradient id="c" x1="1.292" y1="0.236" x2="-0.236" y2="0.5" gradientUnits="objectBoundingBox"><stop offset="0" stop-color="#96c1c7"/><stop offset="1" stop-color="#4b6164"/></linearGradient></defs><g class="b"><g transform="translate(8689.241 -2597.849)"><g class="c" transform="translate(-8689.241 2597.849)"><g transform="translate(8781.241 -2376.849)"><path class="d" d="M-5140.083,2141.268c-28.1,277.036-703.5,329.826-903.328,212.8-131.742-77.153-20.074-12.044-509.878-405.494-201.411-87.185-593.074-67.535-653.03-31.026-145.878,88.83-29.839,585.619,36.47,588.909s414.426-13.16,477.419-52.64,66.309-184.24,36.47-269.78-165.771-200.69-235.4-203.979-281.81,9.87-278.494,95.41S-7203,2397.888-7146.643,2394.6s232.079,36.19,298.388,19.74,79.569-95.41,69.624-167.79-19.893-131.6-69.624-141.47-66.31-19.74-112.725,0-79.57,52.64-102.777,78.96-29.839,13.16,0,62.51,23.208,52.64,49.731,59.22,33.155,19.74,82.886,0,86.2-29.61,82.885-59.22-19.893-49.35-43.1-62.51-49.731-23.03-69.624,0-9.946,32.9,0,62.51" transform="translate(-1489 536.395)"/></g></g><g class="e" transform="translate(-7204 2794)"><circle class="f" cx="144.5" cy="144.5" r="144.5"/><circle class="a" cx="144.5" cy="144.5" r="133"/></g></g><g transform="translate(11262.241 -2597.849)"><g class="c" transform="translate(-8689.241 2597.849)"><g transform="translate(8781.241 -2376.849)"><path class="d" d="M-5140.083,2141.268c-28.1,277.036-703.5,329.826-903.328,212.8-131.742-77.153-20.074-12.044-509.878-405.494-201.411-87.185-593.074-67.535-653.03-31.026-145.878,88.83-29.839,585.619,36.47,588.909s414.426-13.16,477.419-52.64,66.309-184.24,36.47-269.78-165.771-200.69-235.4-203.979-281.81,9.87-278.494,95.41S-7203,2397.888-7146.643,2394.6s232.079,36.19,298.388,19.74,79.569-95.41,69.624-167.79-19.893-131.6-69.624-141.47-66.31-19.74-112.725,0-79.57,52.64-102.777,78.96-29.839,13.16,0,62.51,23.208,52.64,49.731,59.22,33.155,19.74,82.886,0,86.2-29.61,82.885-59.22-19.893-49.35-43.1-62.51-49.731-23.03-69.624,0-9.946,32.9,0,62.51" transform="translate(-1489 536.395)"/></g></g><g class="e" transform="translate(-7204 2794)"><circle class="f" cx="144.5" cy="144.5" r="144.5"/><circle class="a" cx="144.5" cy="144.5" r="133"/></g></g><g transform="translate(13835.241 -2597.849)"><g class="c" transform="translate(-8689.241 2597.849)"><g transform="translate(8781.241 -2376.849)"><path class="d" d="M-5140.083,2141.268c-28.1,277.036-703.5,329.826-903.328,212.8-131.742-77.153-20.074-12.044-509.878-405.494-201.411-87.185-593.074-67.535-653.03-31.026-145.878,88.83-29.839,585.619,36.47,588.909s414.426-13.16,477.419-52.64,66.309-184.24,36.47-269.78-165.771-200.69-235.4-203.979-281.81,9.87-278.494,95.41S-7203,2397.888-7146.643,2394.6s232.079,36.19,298.388,19.74,79.569-95.41,69.624-167.79-19.893-131.6-69.624-141.47-66.31-19.74-112.725,0-79.57,52.64-102.777,78.96-29.839,13.16,0,62.51,23.208,52.64,49.731,59.22,33.155,19.74,82.886,0,86.2-29.61,82.885-59.22-19.893-49.35-43.1-62.51-49.731-23.03-69.624,0-9.946,32.9,0,62.51" transform="translate(-1489 536.395)"/></g></g><g class="e" transform="translate(-7204 2794)"><circle class="f" cx="144.5" cy="144.5" r="144.5"/><circle class="a" cx="144.5" cy="144.5" r="133"/></g></g><g transform="translate(16408.242 -2597.849)"><g class="c" transform="translate(-8689.241 2597.849)"><g transform="translate(8781.241 -2376.849)"><path class="d" d="M-5140.083,2141.268c-28.1,277.036-703.5,329.826-903.328,212.8-131.742-77.153-20.074-12.044-509.878-405.494-201.411-87.185-593.074-67.535-653.03-31.026-145.878,88.83-29.839,585.619,36.47,588.909s414.426-13.16,477.419-52.64,66.309-184.24,36.47-269.78-165.771-200.69-235.4-203.979-281.81,9.87-278.494,95.41S-7203,2397.888-7146.643,2394.6s232.079,36.19,298.388,19.74,79.569-95.41,69.624-167.79-19.893-131.6-69.624-141.47-66.31-19.74-112.725,0-79.57,52.64-102.777,78.96-29.839,13.16,0,62.51,23.208,52.64,49.731,59.22,33.155,19.74,82.886,0,86.2-29.61,82.885-59.22-19.893-49.35-43.1-62.51-49.731-23.03-69.624,0-9.946,32.9,0,62.51" transform="translate(-1489 536.395)"/></g></g><g class="e" transform="translate(-7204 2794)"><circle class="f" cx="144.5" cy="144.5" r="144.5"/><circle class="a" cx="144.5" cy="144.5" r="133"/></g></g><g transform="translate(18981.242 -2597.849)"><g class="c" transform="translate(-8689.241 2597.849)"><g transform="translate(8781.241 -2376.849)"><path class="d" d="M-5140.083,2141.268c-28.1,277.036-703.5,329.826-903.328,212.8-131.742-77.153-20.074-12.044-509.878-405.494-201.411-87.185-593.074-67.535-653.03-31.026-145.878,88.83-29.839,585.619,36.47,588.909s414.426-13.16,477.419-52.64,66.309-184.24,36.47-269.78-165.771-200.69-235.4-203.979-281.81,9.87-278.494,95.41S-7203,2397.888-7146.643,2394.6s232.079,36.19,298.388,19.74,79.569-95.41,69.624-167.79-19.893-131.6-69.624-141.47-66.31-19.74-112.725,0-79.57,52.64-102.777,78.96-29.839,13.16,0,62.51,23.208,52.64,49.731,59.22,33.155,19.74,82.886,0,86.2-29.61,82.885-59.22-19.893-49.35-43.1-62.51-49.731-23.03-69.624,0-9.946,32.9,0,62.51" transform="translate(-1489 536.395)"/></g></g><g class="e" transform="translate(-7204 2794)"><circle class="f" cx="144.5" cy="144.5" r="144.5"/><circle class="a" cx="144.5" cy="144.5" r="133"/></g></g><g transform="translate(21554.242 -2597.849)"><g class="c" transform="translate(-8689.241 2597.849)"><g transform="translate(8781.241 -2376.849)"><path class="d" d="M-5140.083,2141.268c-28.1,277.036-703.5,329.826-903.328,212.8-131.742-77.153-20.074-12.044-509.878-405.494-201.411-87.185-593.074-67.535-653.03-31.026-145.878,88.83-29.839,585.619,36.47,588.909s414.426-13.16,477.419-52.64,66.309-184.24,36.47-269.78-165.771-200.69-235.4-203.979-281.81,9.87-278.494,95.41S-7203,2397.888-7146.643,2394.6s232.079,36.19,298.388,19.74,79.569-95.41,69.624-167.79-19.893-131.6-69.624-141.47-66.31-19.74-112.725,0-79.57,52.64-102.777,78.96-29.839,13.16,0,62.51,23.208,52.64,49.731,59.22,33.155,19.74,82.886,0,86.2-29.61,82.885-59.22-19.893-49.35-43.1-62.51-49.731-23.03-69.624,0-9.946,32.9,0,62.51" transform="translate(-1489 536.395)"/></g></g><g class="e" transform="translate(-7204 2794)"><circle class="f" cx="144.5" cy="144.5" r="144.5"/><circle class="a" cx="144.5" cy="144.5" r="133"/></g></g><g transform="translate(24127.242 -2597.849)"><g class="c" transform="translate(-8689.241 2597.849)"><g transform="translate(8781.241 -2376.849)"><path class="d" d="M-5140.083,2141.268c-28.1,277.036-703.5,329.826-903.328,212.8-131.742-77.153-20.074-12.044-509.878-405.494-201.411-87.185-593.074-67.535-653.03-31.026-145.878,88.83-29.839,585.619,36.47,588.909s414.426-13.16,477.419-52.64,66.309-184.24,36.47-269.78-165.771-200.69-235.4-203.979-281.81,9.87-278.494,95.41S-7203,2397.888-7146.643,2394.6s232.079,36.19,298.388,19.74,79.569-95.41,69.624-167.79-19.893-131.6-69.624-141.47-66.31-19.74-112.725,0-79.57,52.64-102.777,78.96-29.839,13.16,0,62.51,23.208,52.64,49.731,59.22,33.155,19.74,82.886,0,86.2-29.61,82.885-59.22-19.893-49.35-43.1-62.51-49.731-23.03-69.624,0-9.946,32.9,0,62.51" transform="translate(-1489 536.395)"/></g></g><g class="e" transform="translate(-7204 2794)"><circle class="f" cx="144.5" cy="144.5" r="144.5"/><circle class="a" cx="144.5" cy="144.5" r="133"/></g></g></g></svg>