<svg xmlns="http://www.w3.org/2000/svg" width="12664.776" height="5160.495" viewBox="0 0 12664.776 5160.495"><path d="M6772.67,5079.946c-39.331-29.81-80.607-61.43-122.676-93.974-52.533-40.633-106.449-82.831-160.258-125.423-136.912-108.365-273.752-219.743-406.728-331.029-78.943-66.071-157.408-132.862-233.213-198.523-83.371-72.217-165.555-144.826-244.269-215.806-85.568-77.166-169.246-154.4-248.7-229.551-42.007-39.732-83.707-79.709-123.939-118.82-41.642-40.485-82.882-81.17-122.559-120.931-41.028-41.108-81.522-82.356-120.355-122.592-40.11-41.561-79.58-83.222-117.314-123.813-38.93-41.887-77.1-83.807-113.452-124.6-37.431-42.007-74.024-84.043-108.753-124.931-35.73-42.065-70.466-84.062-103.236-124.825q-25.9-32.212-50.827-64.215l-3207.1,799.623,1676.122,222.419-347.641,248.189L215.108,3913.811,2187.551,2505.64l426.471,56.324L1235.509,3544.846l3118.053-777.417c-26.256-37.776-51.33-75.307-74.623-111.714-25.993-40.624-50.506-80.989-72.857-119.974-22.872-39.9-44.13-79.479-63.188-117.654-9.7-19.42-19.02-38.872-27.713-57.817-8.791-19.158-17.2-38.358-24.985-57.073-7.866-18.912-15.319-37.847-22.151-56.272-6.906-18.628-13.37-37.275-19.216-55.416-11.68-36.232-22.464-72.79-32.056-108.65-9.469-35.391-18.027-71.074-25.45-106.064-7.323-34.528-13.742-69.338-19.068-103.456-5.258-33.672-9.6-67.6-12.914-100.832-3.264-32.793-5.61-65.828-6.978-98.195-1.348-31.92-1.771-64.064-1.267-95.538.495-31.051,1.913-62.3,4.211-92.866,2.272-30.169,5.458-60.506,9.479-90.17,3.965-29.264,8.845-58.689,14.514-87.462,5.588-28.378,12.094-56.886,19.326-84.734,7.146-27.49,15.193-55.076,23.918-81.987,8.606-26.549,18.121-53.2,28.278-79.224,10.019-25.654,20.929-51.376,32.425-76.445,11.344-24.733,23.57-49.514,36.338-73.646,12.588-23.792,26.058-47.624,40.036-70.835,13.774-22.871,28.411-45.746,43.5-68,14.882-21.941,30.608-43.859,46.748-65.153,15.923-21,32.667-41.955,49.773-62.28,16.874-20.047,34.561-40.032,52.565-59.4,17.765-19.1,36.319-38.106,55.141-56.489,18.593-18.156,37.935-36.177,57.491-53.57,19.329-17.19,39.389-34.225,59.617-50.633,19.966-16.2,40.666-32.237,61.521-47.679,20.583-15.238,41.845-30.282,63.191-44.7,21.116-14.265,42.866-28.3,64.648-41.713,21.569-13.279,43.729-26.3,65.88-38.7,21.944-12.291,44.447-24.293,66.882-35.679,22.212-11.273,44.98-22.254,67.667-32.635a1806.858,1806.858,0,0,1,274-99.746c14.915-4.082,30.23-7.688,45.526-10.726,15.086-2.993,30.582-5.52,46.063-7.5,15.248-1.952,30.9-3.439,46.528-4.408,15.4-.957,31.187-1.441,46.919-1.441,21.453,0,43.542.9,65.647,2.676,21.647,1.739,43.895,4.36,66.132,7.8,21.76,3.361,44.114,7.595,66.446,12.578,21.834,4.874,44.237,10.6,66.594,17.019,21.844,6.266,44.243,13.373,66.572,21.11,21.8,7.556,44.133,15.923,66.388,24.872,21.695,8.726,43.907,18.243,66.025,28.285,21.508,9.77,43.545,20.322,65.5,31.361,21.32,10.72,43.122,22.19,64.8,34.089,21.068,11.563,42.579,23.834,63.941,36.481,20.745,12.278,41.91,25.24,62.91,38.529,20.373,12.888,41.134,26.426,61.711,40.239,39.157,26.278,79.241,54.617,119.147,84.227,37.062,27.506,74.854,56.763,112.321,86.961,34.477,27.787,69.522,57.048,104.158,86.961,31.481,27.2,63.324,55.535,94.64,84.23,52.766,48.354,105.03,98.6,155.343,149.338,44.783,45.164,79.7,82.369,101.107,105.628,23.372,25.4,35.982,39.932,36.1,40.068l.01-.023c.659-1.419,16.495-35.317,42.753-87.523,15.787-31.39,32.256-63.279,48.936-94.772,20.877-39.412,42.172-78.352,63.295-115.744,53.78-95.2,106.811-181.09,157.615-255.3,14.691-21.456,29.383-42.2,43.671-61.656,15.057-20.5,30.069-40.136,44.628-58.35,15.277-19.119,30.485-37.227,45.2-53.819,15.39-17.348,30.67-33.523,45.41-48.066,12.394-12.232,28.462-24.84,47.759-37.479a630.586,630.586,0,0,1,67.509-37.906c25.893-12.682,54.549-25.014,85.171-36.655,31.636-12.032,65.534-23.382,100.761-33.743,36.688-10.791,75.133-20.6,114.27-29.154,40.97-8.959,83.264-16.66,125.7-22.894A1914.886,1914.886,0,0,1,8188.846,0c35.333,0,70.935,1.018,105.815,3.025,17.9,1.031,35.957,2.34,53.681,3.9,18.065,1.587,36.257,3.468,54.058,5.591,18.166,2.165,36.451,4.644,54.346,7.365,18.215,2.766,36.564,5.869,54.543,9.214,18.257,3.4,36.636,7.149,54.631,11.143,18.272,4.059,36.651,8.483,54.627,13.15,18.26,4.741,36.6,9.867,54.526,15.231,18.222,5.455,36.5,11.308,54.33,17.4,18.121,6.182,36.3,12.791,54.039,19.636,18.026,6.955,36.076,14.339,53.647,21.95,17.855,7.737,35.744,15.926,53.16,24.352,17.685,8.551,35.375,17.575,52.574,26.821,17.468,9.392,34.927,19.274,51.9,29.374,17.219,10.254,34.412,21.023,51.117,32.008,16.925,11.134,33.831,22.813,50.238,34.713,16.634,12.061,33.21,24.678,49.272,37.5,16.288,13,32.508,26.585,48.2,40.362,15.914,13.971,31.74,28.54,47.039,43.3,15.5,14.957,30.9,30.544,45.775,46.325,15.076,16,30.023,32.628,44.414,49.421,14.6,17.038,29.058,34.735,42.961,52.6,14.106,18.121,28.039,36.91,41.408,55.852,13.552,19.19,26.928,39.1,39.762,59.181,13,20.338,25.786,41.4,38.016,62.59,12.374,21.453,24.542,43.684,36.17,66.081,11.751,22.642,23.269,46.076,34.231,69.642,11.085,23.831,21.918,48.493,32.194,73.287,10.388,25.059,20.5,50.969,30.063,77.01,9.666,26.336,19.032,53.522,27.829,80.808,8.907,27.609,17.487,56.1,25.5,84.683,6.8,24.232,12.834,49.136,17.931,74.028,5.045,24.636,9.317,49.938,12.7,75.2,3.342,24.991,5.908,50.662,7.624,76.3,1.7,25.36,2.608,51.376,2.712,77.33.1,25.673-.585,52.012-2.046,78.274q-.533,9.647-1.216,19.4l2208.81-550.721L10427.385,756.5l302.641-236.968,2147.348,380.993L11160.246,2245.038l-381.155-67.625,1200.111-938.4L9680.859,1812.055c-4.764,21.068-9.99,42.424-15.6,63.712-7.081,26.9-14.97,54.459-23.447,81.907-8.367,27.1-17.535,54.821-27.254,82.407-9.592,27.238-19.985,55.105-30.9,82.838-10.759,27.338-22.329,55.325-34.387,83.183-11.9,27.47-24.584,55.551-37.722,83.468-12.966,27.545-26.724,55.694-40.892,83.662-13.965,27.567-28.737,55.758-43.9,83.791-14.943,27.613-30.676,55.82-46.761,83.843-15.888,27.667-32.527,55.868-49.459,83.82-16.7,27.571-34.2,55.739-52,83.723-17.5,27.5-35.793,55.61-54.379,83.545-36.28,54.53-75.059,110.472-115.262,166.276-38.943,54.058-80.287,109.467-122.883,164.686-41.205,53.418-84.688,108.087-129.239,162.495-43.021,52.543-88.215,106.274-134.323,159.706-44.414,51.466-90.895,104.057-138.146,156.312-45.423,50.232-92.762,101.481-140.7,152.324-45.985,48.771-93.754,98.473-141.992,147.738-46.1,47.09-93.884,95.05-142,142.548-45.859,45.261-93.218,91.276-140.761,136.76-45.2,43.238-91.706,87.1-138.25,130.377-161.1,149.794-330.173,299.729-502.525,445.648-67.69,57.31-136.071,114.144-203.248,168.926-53.7,43.788-106.762,86.38-157.721,126.6-86.99,68.643-137.839,106.652-138.343,107.03C6878.4,5159.105,6840.075,5131.038,6772.67,5079.946ZM5572.523,582.719c-13.558.7-27.144,1.784-40.378,3.206-13.421,1.441-26.875,3.274-39.98,5.452-13.289,2.211-26.582,4.835-39.515,7.8a1774.913,1774.913,0,0,0-237.812,72.531c-19.656,7.533-39.415,15.519-58.731,23.728-19.494,8.286-39.024,17.015-58.053,25.945-19.232,9.023-38.471,18.492-57.177,28.142-18.926,9.763-37.806,19.966-56.111,30.33-18.521,10.484-36.975,21.417-54.85,32.505-18.088,11.218-36.051,22.881-53.4,34.667-17.578,11.945-34.984,24.332-51.741,36.817-16.973,12.646-33.766,25.754-49.9,38.956-16.317,13.347-32.421,27.17-47.86,41.073-15.632,14.081-30.98,28.614-45.623,43.19-14.85,14.779-29.38,30.017-43.2,45.287-14.016,15.5-27.67,31.436-40.572,47.372-13.092,16.166-25.793,32.8-37.76,49.447-12.129,16.873-23.822,34.2-34.749,51.505-11.085,17.549-21.692,35.566-31.542,53.551-9.977,18.231-19.446,36.93-28.14,55.584-8.81,18.912-17.07,38.3-24.545,57.61-7.582,19.588-14.565,39.645-20.758,59.617-6.279,20.244-11.922,40.976-16.776,61.611-4.916,20.913-9.152,42.3-12.6,63.6-3.491,21.588-6.257,43.645-8.225,65.567-1.994,22.238-3.225,44.954-3.658,67.525-.437,22.891-.068,46.263,1.1,69.467,1.186,23.524,3.222,47.549,6.056,71.4,2.873,24.167,6.645,48.836,11.208,73.323,4.622,24.8,10.19,50.109,16.55,75.226,6.444,25.447,13.877,51.4,22.089,77.12,8.319,26.061,17.681,52.643,27.823,79,10.1,26.242,22.173,53.567,35.905,81.212,13.441,27.053,28.824,55.164,45.736,83.542,16.54,27.761,34.994,56.54,54.843,85.552,19.384,28.327,40.663,57.678,63.233,87.236,22.035,28.847,45.888,58.654,70.909,88.6,24.417,29.225,50.61,59.387,77.854,89.647,26.575,29.513,54.87,59.917,84.088,90.364,28.462,29.655,58.608,60.2,89.6,90.765,217.329,214.358,496.226,450.5,828.939,701.859,68.3,51.6,139.633,104.4,212.012,156.923,65.771,47.727,133.868,96.291,202.414,144.354,115.42,80.924,234.188,161.906,353.012,240.7,46.735,30.986,93.531,61.672,139.093,91.2,36.539,23.683,72.363,46.67,106.475,68.33,56.792,36.063,90.646,56.87,92.058,57.739l.026.016c.052-.029.727-.452,2-1.257-69.923-45.6-2014.362-1319.455-2318.713-2156.787-309.926-852.687,335.884-1386.5,934.367-1531.7a626.509,626.509,0,0,1,115.207-16.566c-13.273-.624-26.462-.94-39.386-.94h-.136C5599.583,581.671,5585.883,582.024,5572.523,582.719Zm3626.769,1349.4c-311.144,960.793-1864.51,2074-2208.1,2311.009,14.336-9.347,30.657-20.047,48.791-32.034,44.224-29.235,90.28-60.208,136.893-92.051,58.25-39.8,117.6-81.121,176.407-122.831,149.581-106.1,296.327-215.125,436.163-324.052,40.433-31.494,80.8-63.392,119.99-94.8,41.27-33.077,82.378-66.536,122.171-99.442,41.732-34.509,83.2-69.384,123.254-103.653,41.875-35.831,83.335-71.972,123.238-107.425,380.444-338.039,667.537-655.275,853.308-942.9,13.163-20.38,25.983-40.879,38.105-60.929,12.3-20.334,24.239-40.8,35.492-60.832,11.4-20.283,22.409-40.7,32.738-60.693,10.458-20.234,20.5-40.582,29.849-60.486,9.456-20.134,18.482-40.4,26.82-60.234,8.426-20.044,16.386-40.2,23.653-59.921,7.355-19.956,14.2-40,20.348-59.559q.659-2.089,1.306-4.176ZM8026.687,537.583c451.634,7.459,985.132,194.9,1193.373,853.068,30.363,95.968,39.306,196.3,30.215,299.662L9384.69,1656.8c.814-15.435,1.189-30.838,1.118-45.93-.087-18.877-.879-37.793-2.349-56.227-1.49-18.635-3.717-37.3-6.622-55.484-2.932-18.366-6.639-36.765-11.021-54.682-4.421-18.1-9.66-36.209-15.558-53.826-6.962-20.784-14.408-41.5-22.135-61.572-7.644-19.853-15.769-39.622-24.158-58.754-8.3-18.942-17.076-37.78-26.087-55.991-8.91-18-18.308-35.931-27.942-53.289-9.5-17.1-19.494-34.141-29.713-50.636-10.07-16.253-20.632-32.418-31.394-48.047-10.62-15.422-21.724-30.734-32.993-45.507-11.124-14.585-22.736-29.064-34.51-43.035-11.608-13.774-23.7-27.438-35.94-40.608-12.064-12.985-24.606-25.851-37.285-38.245-12.51-12.223-25.477-24.313-38.556-35.934-12.9-11.47-26.271-22.8-39.729-33.685-13.272-10.73-27-21.323-40.827-31.487-13.625-10.025-27.7-19.9-41.839-29.351-13.919-9.311-28.307-18.486-42.763-27.27-14.239-8.648-28.908-17.141-43.606-25.24-14.5-7.986-29.423-15.816-44.366-23.272-14.73-7.349-29.885-14.537-45.045-21.362-14.928-6.725-30.282-13.289-45.633-19.507-15.131-6.131-30.657-12.087-46.137-17.707-15.245-5.53-30.912-10.9-46.564-15.965-15.39-4.977-31.17-9.779-46.9-14.281-30.726-8.787-62.513-16.773-94.482-23.728-30.95-6.735-62.854-12.678-94.833-17.668-30.929-4.825-62.727-8.884-94.5-12.058-30.7-3.07-62.161-5.391-93.509-6.9-30.259-1.461-61.158-2.2-91.838-2.2Q8041.848,537.347,8026.687,537.583ZM6957.024,1196.029c-19.048,31.727-31.633,53.9-35.692,61.116,1.664,1.674,2.511,2.54,2.511,2.54s25.554-48.716,67.354-119.376C6979.557,1158.9,6968.1,1177.585,6957.024,1196.029Z" transform="translate(-213.786 0.5)" fill="#ff0606" stroke="#707070" stroke-width="1"/></svg>